<mxfile host="app.diagrams.net" modified="2022-10-28T03:36:28.639Z" agent="5.0 (Macintosh)" etag="328Ps-0nrJSde5r1KCK6" version="20.5.1" type="github">
  <diagram id="Xx7sSOrR2XzjiXDBcTC3" name="Page-1">
    <mxGraphModel dx="946" dy="544" grid="1" gridSize="10" guides="1" tooltips="1" connect="1" arrows="1" fold="1" page="1" pageScale="1" pageWidth="850" pageHeight="1100" math="0" shadow="0">
      <root>
        <mxCell id="0" />
        <mxCell id="1" parent="0" />
        <mxCell id="NUNgj_yWfBi1Yf9tU7FG-1" value="&lt;div&gt;&lt;font face=&quot;Times New Roman&quot;&gt;Форми на социален диалог в България&lt;/font&gt;&lt;br&gt;&lt;/div&gt;" style="text;html=1;align=center;verticalAlign=middle;resizable=0;points=[];autosize=1;strokeColor=none;fillColor=none;" vertex="1" parent="1">
          <mxGeometry x="340" y="70" width="220" height="30" as="geometry" />
        </mxCell>
        <mxCell id="NUNgj_yWfBi1Yf9tU7FG-2" value="&lt;font face=&quot;Times New Roman&quot;&gt;Комисия по труд, социална и демографска политика към Народното събрание&lt;br&gt;&lt;/font&gt;" style="rounded=0;whiteSpace=wrap;html=1;strokeWidth=1.5;" vertex="1" parent="1">
          <mxGeometry x="100" y="135" width="190" height="60" as="geometry" />
        </mxCell>
        <mxCell id="NUNgj_yWfBi1Yf9tU7FG-3" value="&lt;p&gt;&lt;font face=&quot;Times New Roman&quot;&gt;Национален съвет по условията на труда &lt;/font&gt;&lt;/p&gt;" style="html=1;rounded=0;strokeWidth=1.5;spacing=3;spacingLeft=0;whiteSpace=wrap;" vertex="1" parent="1">
          <mxGeometry x="600" y="135" width="190" height="60" as="geometry" />
        </mxCell>
        <mxCell id="NUNgj_yWfBi1Yf9tU7FG-5" value="Работна сила" style="ellipse;whiteSpace=wrap;html=1;aspect=fixed;labelBackgroundColor=#ffffff;strokeWidth=1.5;fontFamily=Times New Roman;" vertex="1" parent="1">
          <mxGeometry x="395" y="230" width="110" height="110" as="geometry" />
        </mxCell>
        <mxCell id="NUNgj_yWfBi1Yf9tU7FG-10" value="&lt;div&gt;Национален съвет&lt;/div&gt;&lt;div&gt;&amp;nbsp;за тристранно сътрудничество&lt;/div&gt;" style="ellipse;whiteSpace=wrap;html=1;labelBackgroundColor=#ffffff;strokeWidth=1.5;fontFamily=Times New Roman;" vertex="1" parent="1">
          <mxGeometry x="350" y="120" width="190" height="90" as="geometry" />
        </mxCell>
        <mxCell id="NUNgj_yWfBi1Yf9tU7FG-13" value="&lt;div&gt;Областен/ Общински съвет &lt;br&gt;&lt;/div&gt;&lt;div&gt;за тристранно&lt;/div&gt;&lt;div&gt;сътрудничество&lt;br&gt;&lt;/div&gt;" style="ellipse;whiteSpace=wrap;html=1;labelBackgroundColor=#ffffff;strokeWidth=1.5;fontFamily=Times New Roman;" vertex="1" parent="1">
          <mxGeometry x="100" y="240" width="190" height="90" as="geometry" />
        </mxCell>
        <mxCell id="NUNgj_yWfBi1Yf9tU7FG-14" value="&lt;div&gt;Отраслов/Браншов&lt;/div&gt;&lt;div&gt;съвет за тристранно&lt;/div&gt;&lt;div&gt;сътрудничество&lt;br&gt;&lt;/div&gt;" style="ellipse;whiteSpace=wrap;html=1;labelBackgroundColor=#ffffff;strokeWidth=1.5;fontFamily=Times New Roman;" vertex="1" parent="1">
          <mxGeometry x="600" y="240" width="190" height="90" as="geometry" />
        </mxCell>
        <mxCell id="NUNgj_yWfBi1Yf9tU7FG-15" value="&lt;div&gt;&lt;font face=&quot;Times New Roman&quot;&gt;Икономически и &lt;br&gt;&lt;/font&gt;&lt;/div&gt;&lt;div&gt;&lt;font face=&quot;Times New Roman&quot;&gt;социален съвет&lt;br&gt;&lt;/font&gt;&lt;/div&gt;" style="rounded=0;whiteSpace=wrap;html=1;strokeWidth=1.5;" vertex="1" parent="1">
          <mxGeometry x="100" y="400" width="190" height="60" as="geometry" />
        </mxCell>
        <mxCell id="NUNgj_yWfBi1Yf9tU7FG-16" value="&lt;font face=&quot;Times New Roman&quot;&gt;Комисия по труд, социална и демографска политика към Народното събрание&lt;br&gt;&lt;/font&gt;" style="rounded=0;whiteSpace=wrap;html=1;strokeWidth=1.5;" vertex="1" parent="1">
          <mxGeometry x="600" y="400" width="190" height="60" as="geometry" />
        </mxCell>
        <mxCell id="NUNgj_yWfBi1Yf9tU7FG-17" value="Предприятие" style="ellipse;whiteSpace=wrap;html=1;labelBackgroundColor=#ffffff;strokeWidth=1.5;fontFamily=Times New Roman;" vertex="1" parent="1">
          <mxGeometry x="350" y="380" width="190" height="90" as="geometry" />
        </mxCell>
      </root>
    </mxGraphModel>
  </diagram>
</mxfile>
